HIERARCHY
ROOT pelvis
{
  OFFSET 0 100 0
  CHANNELS 6 Xposition Yposition Zposition Zrotation Xrotation Yrotation
  JOINT pelvis_right_femur
  {
    OFFSET -10.78128 -3.44521 -0.5502486
    CHANNELS 3 Zrotation Xrotation Yrotation
    JOINT right_femur_tibia
    {
      OFFSET -0.8047443 -44.0398 -0.1307829
      CHANNELS 3 Zrotation Xrotation Yrotation
      JOINT right_tibia_foot
      {
        OFFSET 3.006224 -47.83518 -5
        CHANNELS 3 Zrotation Xrotation Yrotation
        End Site
        {
          OFFSET 0 -5 15
        }
      }
    }
  }
  JOINT pelvis_left_femur
  {
    OFFSET 10.78128 -3.44521 -0.5502486
    CHANNELS 3 Zrotation Xrotation Yrotation
    JOINT left_femur_tibia
    {
      OFFSET 0.8047443 -44.0398 -0.1307829
      CHANNELS 3 Zrotation Xrotation Yrotation
      JOINT left_tibia_foot
      {
        OFFSET -4.370144 -48.10324 -4.275266
        CHANNELS 3 Zrotation Xrotation Yrotation
        End Site
        {
          OFFSET 0 -5 15
        }
      }
    }
  }
  JOINT pelvis_spine1
  {
    OFFSET 0 6.468898 -3.129235
    CHANNELS 3 Zrotation Xrotation Yrotation
    JOINT spine1
    {
      OFFSET 0 23.15396 4.99043
      CHANNELS 3 Zrotation Xrotation Yrotation
      JOINT spine2
      {
        OFFSET 0 20.79997 -5.064912
        CHANNELS 3 Zrotation Xrotation Yrotation
        JOINT neck
        {
          OFFSET 0 14.38658 9.616178
          CHANNELS 3 Zrotation Xrotation Yrotation
          End Site
          {
            OFFSET 0 20 0
          }
        }
      }
      JOINT right_manubrium
      {
        OFFSET -5.722621 16.35077 3.967754
        CHANNELS 3 Zrotation Xrotation Yrotation
        JOINT right_clavicle
        {
          OFFSET -13.16364 1.694482 -4.693211
          CHANNELS 3 Zrotation Xrotation Yrotation
          JOINT right_humerus
          {
            OFFSET -28.5034 -0.3100689 -2.792744
            CHANNELS 3 Zrotation Xrotation Yrotation
            JOINT right_radius
            {
              OFFSET -25.15693 0.02248979 -1.271978
              CHANNELS 3 Zrotation Xrotation Yrotation
              End Site
              {
                OFFSET -15 0 0
              }
            }
          }
        }
      }
      JOINT left_manubrium
      {
        OFFSET 5.722621 16.35077 3.967754
        CHANNELS 3 Zrotation Xrotation Yrotation
        JOINT left_clavicle
        {
          OFFSET 13.16364 1.694482 -4.693211
          CHANNELS 3 Zrotation Xrotation Yrotation
          JOINT left_humerus
          {
            OFFSET 29.39168 -1.063119 -2.237045
            CHANNELS 3 Zrotation Xrotation Yrotation
            JOINT left_radius
            {
              OFFSET 24.59957 -0.9528479 0.9047498
              CHANNELS 3 Zrotation Xrotation Yrotation
              End Site
              {
                OFFSET 15 -0 -0
              }
            }
          }
        }
      }
    }
  }
}
MOTION
Frames: 18
Frame Time: 0.0416666666667
28.22971 104.7299 231.897 0.9859433 -6.289314 1.190684 1.511331 10.52629 7.556656 2.51017e-09 31.0035 -2.816577e-09 4.418236 -10.52515 -3.783303 -1.466596 -16.6555 -7.412875 3.382603e-09 19.31949 -7.365617e-09 -6.343619 -10.82107 20.32232 -1.69948 -0.4774866 7.671141 -0.5070381 9.480367 -3.934367 2.295675 20.92983 6.016862 1.9294 -17.12772 8.211632 2.871344 -20.71916 11.27279 80.76905 24.79705 -7.14317 6.84804e-10 1.22562e-09 25.0788 -25.21482 14.79231 13.85926 5.032341 -15.19969 -1.195059 -94.19904 21.1295 25.09717 5.764945e-12 -6.617192e-11 -7.834262 -3.081817 7.324742 15.47821
29.39682 104.9466 238.0891 1.093722 -6.734595 1.206293 1.06612 9.045325 7.650713 2.69138e-09 37.98145 -2.790248e-09 4.292192 -8.291051 -4.456999 -2.398465 -13.92311 -8.260562 3.895816e-09 20.67282 -4.545938e-09 -6.233055 -10.92776 20.02705 -1.931372 -0.4441542 7.167628 -0.6030882 9.50154 -4.025676 2.313391 21.14223 6.136291 1.944866 -16.99556 8.371004 3.220135 -19.90356 11.17603 81.18306 25.09988 -7.759357 8.767492e-10 1.314222e-09 23.79456 -24.85562 14.61355 13.50338 4.723672 -15.03615 -1.361031 -93.31868 21.65329 24.05474 4.183229e-12 -1.910326e-10 -7.398846 -2.972024 7.374535 15.46231
30.51614 105.5794 244.0407 1.342114 -7.40403 1.506471 0.5364956 6.061192 7.624235 2.393461e-09 45.65969 -2.626309e-09 4.176097 -6.562982 -5.476052 -3.517764 -9.775471 -9.289714 3.810143e-09 21.17391 -8.222252e-10 -5.710647 -11.59508 19.71704 -2.306634 -0.3978074 6.488604 -0.6599486 9.572661 -4.347763 2.305233 21.52563 6.245261 1.882981 -16.72767 8.566931 3.560632 -18.96773 11.08227 82.29136 25.47379 -9.067534 8.984964e-10 1.220341e-09 22.18846 -24.29601 14.53238 12.90514 4.481702 -15.25391 -1.716772 -92.03093 22.3496 22.09071 -7.046393e-11 -2.542167e-10 -7.907686 -2.638593 7.627963 15.20228
31.55203 106.485 249.5958 1.599551 -7.997083 2.050848 0.1556701 1.992395 7.38127 1.481327e-09 51.53116 -2.088113e-09 3.779381 -6.089972 -6.574078 -4.442295 -4.915927 -10.25333 3.170577e-09 20.72467 3.134391e-09 -4.917074 -12.55147 19.26284 -2.673456 -0.3418218 5.686001 -0.6004921 9.54726 -4.846748 2.268729 21.93288 6.244726 1.708362 -16.36707 8.71328 3.778738 -17.98829 10.93116 83.50194 25.87259 -10.70754 7.035265e-10 9.08538e-10 20.41319 -23.20257 14.46656 11.99047 4.326251 -15.75563 -2.129454 -90.20643 23.14348 19.43967 -2.882681e-10 -2.109624e-10 -9.211592 -2.063209 8.145154 14.60985
32.486 107.4718 254.83 1.728908 -8.240007 2.748677 0.08864711 -2.8599 6.906621 5.74249e-10 54.08332 -1.61886e-09 3.162383 -6.313228 -7.560203 -4.994007 0.2345616 -10.98813 2.430663e-09 19.45656 5.839389e-09 -4.265011 -13.75515 18.59954 -2.886279 -0.3082322 4.828921 -0.4020385 9.395393 -5.452852 2.244063 22.25185 6.184612 1.49582 -16.10505 8.846266 3.815274 -17.07185 10.73171 84.86841 26.13218 -12.55202 4.288021e-10 5.458717e-10 18.66761 -21.89678 14.43306 11.00974 4.371533 -16.46027 -2.487322 -88.40667 23.75036 16.61814 -6.059881e-10 -7.161227e-11 -11.02529 -1.344594 8.789596 13.79505
33.3258 108.2615 259.8819 1.789268 -8.089791 3.506937 0.2229144 -7.738921 6.242355 5.428523e-11 52.47552 -1.484718e-09 2.593691 -6.877667 -8.185 -5.228528 4.717478 -11.44334 1.494298e-09 17.1317 6.232301e-09 -3.801548 -15.30848 18.05184 -2.992549 -0.2671058 4.095018 -0.1371019 9.118527 -6.003241 2.249725 22.44837 6.137474 1.349444 -15.96715 8.960118 3.63481 -16.32232 10.50944 86.02584 26.15972 -14.22936 1.060603e-10 1.958427e-10 17.15223 -20.8466 14.31095 10.19901 4.744565 -17.25364 -2.721551 -86.8456 24.03427 13.85728 -9.364224e-10 1.131867e-10 -13.20743 -0.570705 9.41777 12.80224
34.05397 108.6418 264.8191 1.786903 -7.649707 4.224624 0.5401072 -12.53624 5.482885 -1.689204e-10 47.23667 -1.509871e-09 2.004918 -7.709795 -8.475622 -5.259161 8.553493 -11.72464 2.981262e-10 14.67294 4.756152e-09 -3.486695 -17.04232 17.66364 -3.00653 -0.1936948 3.482304 0.1765675 8.725122 -6.458542 2.292055 22.54117 6.083627 1.27803 -15.90264 9.030919 3.286023 -15.60652 10.25721 86.74125 26.02051 -15.71577 -2.546325e-10 -1.696973e-10 15.64546 -19.86733 14.00048 9.39971 5.379343 -18.06994 -2.835556 -85.29329 24.0973 11.03085 -1.284759e-09 3.066968e-10 -15.65285 0.2757858 10.05492 11.5953
34.68072 108.5366 269.9193 1.637602 -6.931556 4.832515 0.9834188 -17.00417 4.605101 1.475258e-10 39.54223 -1.869387e-09 1.52798 -8.186184 -8.544538 -5.074002 11.72874 -11.65122 -1.178054e-09 12.74625 1.88129e-09 -3.805385 -18.76583 17.09942 -2.88342 -0.06648587 2.948033 0.5097442 8.216815 -6.826167 2.379358 22.62508 6.088368 1.291624 -15.96758 9.127295 2.849942 -14.8604 10.01355 87.5906 25.81214 -17.09398 -5.46521e-10 -3.973846e-10 14.1618 -19.39256 13.72293 8.915427 6.223069 -18.86402 -2.764324 -84.29166 23.91893 8.361867 -1.653444e-09 4.907306e-10 -18.08344 1.053307 10.50567 10.43549
35.16676 107.8943 275.0363 1.554767 -6.30952 5.314242 1.37358 -20.85255 3.754945 1.199768e-10 31.22123 -1.75787e-09 0.8806787 -9.034114 -8.443096 -4.928144 14.11931 -11.59264 -3.001774e-09 11.69519 -7.876782e-10 -3.9157 -20.29696 16.81363 -2.805694 0.1177231 2.539387 0.8085917 7.720551 -7.082783 2.455519 22.77028 6.060492 1.349123 -15.9812 9.135908 2.407174 -14.09844 9.801133 87.99388 25.69781 -18.25769 -9.361278e-10 -7.15221e-10 12.55232 -18.80432 13.21062 8.307171 7.064874 -19.63981 -2.67529 -83.09949 23.74944 5.583392 -2.014774e-09 6.419779e-10 -20.53129 1.953076 11.05226 9.087449
35.50827 106.8599 280.1918 1.398622 -5.752916 5.659339 1.736956 -23.90408 2.944348 9.744068e-11 23.93365 -1.507628e-09 -0.002982669 -9.818019 -8.331275 -4.725096 15.96727 -11.4598 -4.649086e-09 11.84259 -2.429556e-09 -4.196732 -21.26481 16.33669 -2.672727 0.312606 2.145518 1.078129 7.235188 -7.274544 2.514575 22.96065 5.99702 1.393729 -16.00522 9.100637 2.038564 -13.31689 9.616264 88.32215 25.73629 -19.21313 -1.291451e-09 -9.851752e-10 10.92877 -18.1568 12.6923 7.750644 7.72319 -20.28099 -2.538158 -82.04943 23.60574 3.141536 -2.382056e-09 7.720535e-10 -22.46092 2.838673 11.57858 7.822424
35.72431 105.7012 285.4721 1.110867 -5.354957 5.912612 2.130654 -26.02637 2.335507 1.915949e-10 19.38455 -1.22834e-09 -1.11722 -10.33014 -8.398646 -4.441443 17.5711 -11.31083 -5.537797e-09 13.60908 -2.341572e-09 -4.826825 -21.38817 15.46398 -2.425588 0.47443 1.705537 1.31146 6.804649 -7.433273 2.570007 23.18977 5.873176 1.364134 -16.04895 9.068321 1.82039 -12.53943 9.45963 88.8478 25.89336 -19.99214 -1.499791e-09 -1.143934e-09 9.431657 -17.36172 12.33387 7.264171 8.021206 -20.67282 -2.379708 -81.38134 23.60293 1.422006 -2.770539e-09 8.776162e-10 -23.42725 3.544912 12.03619 6.905697
35.8875 104.7628 291.0596 0.7155861 -5.185127 6.153916 2.550391 -26.9724 2.089736 6.099401e-10 18.92494 -1.076056e-09 -2.164456 -9.921268 -8.670503 -4.152827 18.98803 -11.21885 -5.290973e-09 16.97054 -7.874845e-10 -5.907397 -20.66965 14.31025 -2.071297 0.5690822 1.24984 1.46101 6.50553 -7.522617 2.654349 23.44431 5.748829 1.287111 -16.16796 9.12135 1.810341 -11.85184 9.350042 89.79412 26.0383 -20.55545 -1.403766e-09 -1.093464e-09 8.287192 -16.6867 12.24431 7.003038 7.918285 -20.68965 -2.217856 -81.5255 23.79744 0.8700635 -3.128603e-09 9.032287e-10 -23.04757 3.849902 12.31293 6.628866
36.03856 104.2786 296.8818 0.3640439 -5.338283 6.389979 3.082525 -26.42451 2.297807 1.054075e-09 21.15179 -7.826487e-10 -3.20443 -9.177242 -8.924223 -3.915771 19.5875 -11.2971 -4.192752e-09 22.00267 1.604152e-09 -6.819076 -19.17535 13.47965 -1.676917 0.5938297 0.9628961 1.514056 6.432323 -7.457344 2.757978 23.64782 5.569008 1.207789 -16.29327 9.145559 1.917921 -11.39394 9.30512 90.42478 26.0703 -20.70647 -1.115871e-09 -9.917075e-10 7.530472 -15.88568 12.14128 6.708822 7.475896 -20.38551 -2.136638 -82.04267 24.1174 1.408646 -3.39499e-09 8.098943e-10 -21.58079 3.909324 12.57533 6.698037
36.1979 104.3707 302.8989 0.06218849 -5.740894 6.537753 3.84084 -24.30374 2.889948 1.536566e-09 23.75458 -2.874091e-10 -4.2066 -8.564405 -9.041961 -3.643122 18.85539 -11.37355 -2.738245e-09 29.12289 3.91449e-09 -7.699551 -17.05653 13.13329 -1.213569 0.6186293 0.959935 1.496668 6.539265 -7.204667 2.908803 23.88244 5.336876 1.169583 -16.44912 9.133249 2.051446 -11.18304 9.359332 90.86199 25.97988 -20.50049 -7.171817e-10 -8.852142e-10 7.156642 -15.12973 11.99319 6.408369 6.888595 -19.88198 -2.059552 -83.21958 24.52941 2.894176 -3.61403e-09 6.022835e-10 -19.43145 3.753451 12.83946 7.021334
36.3351 104.9301 308.7496 0.1098314 -6.53482 6.511787 4.478055 -20.35075 3.678629 1.496351e-09 25.69307 8.00223e-10 -5.055997 -8.895874 -8.842311 -3.539513 15.98458 -11.53437 -1.805088e-09 36.87136 5.835972e-09 -7.799536 -14.88655 13.9902 -0.9481853 0.7151414 1.438472 1.33812 6.876489 -6.688111 3.059862 24.22199 5.073107 1.232684 -16.48602 8.993794 2.130669 -11.38013 9.55177 90.53788 25.84367 -19.72134 -4.877937e-10 -9.707451e-10 7.258724 -14.54317 11.51278 6.038413 6.32919 -19.33676 -2.070883 -84.57285 24.97345 4.807237 -3.70595e-09 2.851175e-10 -17.27376 3.598703 13.2422 7.244242
36.42717 105.7714 314.2363 0.3632295 -7.425449 6.244756 4.882557 -15.47083 4.370998 1.172864e-09 26.13444 2.133943e-09 -5.692342 -9.904662 -8.350537 -3.525952 11.70741 -11.68568 -1.391552e-09 43.43101 6.758637e-09 -7.426982 -13.06565 15.59125 -0.8564797 0.8653993 2.211928 1.090286 7.273676 -6.004965 3.202125 24.59284 4.826487 1.373444 -16.44615 8.784321 2.091282 -11.89254 9.800919 89.65903 25.63307 -18.48351 -4.255258e-10 -1.175706e-09 7.77424 -14.29085 10.8196 5.783492 5.947286 -18.81511 -2.101126 -85.98752 25.30819 6.819812 -3.706636e-09 -5.436859e-11 -15.3687 3.491061 13.70208 7.31014
36.51073 106.7919 319.5353 0.5095597 -7.994561 5.712628 5.144688 -10.22066 4.778115 1.175108e-09 25.34985 3.192988e-09 -6.173887 -10.62126 -7.544948 -3.419945 6.713501 -11.65024 -9.550205e-10 48.38611 6.418121e-09 -7.28821 -11.49146 17.16641 -0.7765669 1.009548 3.047723 0.8309041 7.574919 -5.259876 3.323701 24.9363 4.689179 1.594666 -16.58048 8.607273 1.99993 -12.58832 10.05993 88.82916 25.49676 -16.96575 -3.300294e-10 -1.269724e-09 8.615906 -14.5935 10.18662 5.970012 5.74484 -18.27143 -1.988389 -87.94198 25.44338 9.209604 -3.641108e-09 -3.820148e-10 -13.39362 3.340237 14.05112 7.442185
36.5936 107.6532 324.4796 0.7421061 -8.317525 4.979643 5.025808 -5.163223 4.833951 9.707088e-10 23.42796 4.117425e-09 -6.586409 -11.87343 -6.4366 -3.383242 1.335888 -11.75977 -7.865663e-10 48.7917 4.934923e-09 -6.415084 -10.70897 19.0547 -0.927928 1.098175 3.903413 0.5473955 7.77123 -4.499001 3.354226 25.14078 4.603765 1.829762 -16.69364 8.37409 1.760543 -13.60582 10.25081 87.27789 25.36589 -14.96378 -4.486044e-10 -1.468965e-09 9.880604 -15.03537 9.35104 6.361559 5.752132 -17.79835 -1.894408 -89.35486 25.38512 11.40493 -3.475048e-09 -6.040845e-10 -11.816 3.433922 14.51871 7.223361
